<?xml version="1.0" encoding="UTF-8"?>
<!-- Created with Inkscape (http://www.inkscape.org/) -->
<svg width="885.86" height="108" version="1.1" viewBox="0 0 885.86 108" xmlns="http://www.w3.org/2000/svg">
 <defs>
  <clipPath id="clipPath2">
   <path transform="translate(-223.12 -33.55)" d="m0 81h664.4v-81h-664.4z"/>
  </clipPath>
  <clipPath id="clipPath4">
   <path transform="translate(-173.08 -48.08)" d="m0 81h664.4v-81h-664.4z"/>
  </clipPath>
  <clipPath id="clipPath6">
   <path transform="translate(-269.28 -43.46)" d="m0 81h664.4v-81h-664.4z"/>
  </clipPath>
  <clipPath id="clipPath8">
   <path transform="translate(-335.85 -58.51)" d="m0 81h664.4v-81h-664.4z"/>
  </clipPath>
  <clipPath id="clipPath10">
   <path transform="translate(-532.55 -27.6)" d="m0 81h664.4v-81h-664.4z"/>
  </clipPath>
  <clipPath id="clipPath12">
   <path transform="translate(-651.2 -32.96)" d="m0 81h664.4v-81h-664.4z"/>
  </clipPath>
  <clipPath id="clipPath14">
   <path transform="translate(-371.53 -27.6)" d="m0 81h664.4v-81h-664.4z"/>
  </clipPath>
  <clipPath id="clipPath16">
   <path transform="translate(-591.7 -32.96)" d="m0 81h664.4v-81h-664.4z"/>
  </clipPath>
  <clipPath id="clipPath18">
   <path transform="translate(-469.83 -36.78)" d="m0 81h664.4v-81h-664.4z"/>
  </clipPath>
  <clipPath id="clipPath20">
   <path transform="translate(-418.37 -35.97)" d="m0 81h664.4v-81h-664.4z"/>
  </clipPath>
  <clipPath id="clipPath22">
   <path transform="translate(-95.03 -17.09)" d="m0 81h664.4v-81h-664.4z"/>
  </clipPath>
 </defs>
 <g>
  <g fill="#404040">
   <path transform="matrix(1.3333 0 0 -1.3333 297.49 63.267)" d="m0 0c0-2.94-0.78-5.31-2.35-7.12-1.52-1.76-3.79-2.64-6.83-2.64s-5.34 0.88-6.9 2.64c-1.52 1.81-2.28 4.18-2.28 7.12v33.84h-10.5v-34.5c0-3.03 0.49-5.7 1.47-8s2.35-4.23 4.11-5.8 3.84-2.74 6.24-3.52c2.4-0.83 5.02-1.25 7.86-1.25s5.38 0.42 7.78 1.25c2.4 0.78 4.48 1.96 6.24 3.52 1.81 1.57 3.21 3.5 4.18 5.8s1.47 4.97 1.47 8v34.5h-10.5v-33.84z" clip-path="url(#clipPath2)"/>
   <path transform="matrix(1.3333 0 0 -1.3333 230.77 43.893)" d="m0 0h-24v19.31h-10.5v-51.39h10.5v22.61h24v-22.61h10.5v51.39h-10.5z" clip-path="url(#clipPath4)"/>
   <path transform="matrix(1.3333 0 0 -1.3333 359.04 50.053)" d="m0 0v-8.37h14.76c-0.44-1.57-1.08-3.01-1.91-4.33s-1.86-2.5-3.08-3.52c-1.22-1.03-2.67-1.84-4.33-2.42-1.61-0.54-3.47-0.81-5.58-0.81-3.18 0-6.04 0.73-8.59 2.2-2.5 1.47-4.48 3.52-5.95 6.17-1.47 2.69-2.2 5.8-2.2 9.32s0.73 6.66 2.2 9.25c1.52 2.59 3.55 4.58 6.09 5.95 2.54 1.42 5.36 2.13 8.44 2.13 3.28 0 6.04-0.71 8.29-2.13 2.3-1.37 4.09-3.18 5.36-5.43l8.96 5.21c-1.57 2.4-3.45 4.45-5.65 6.17-2.15 1.76-4.65 3.13-7.49 4.11-2.79 0.98-5.95 1.47-9.47 1.47-3.96 0-7.64-0.64-11.01-1.91-3.38-1.27-6.31-3.08-8.81-5.43s-4.45-5.19-5.87-8.52c-1.37-3.28-2.06-6.9-2.06-10.86s0.66-7.61 1.98-10.94c1.37-3.33 3.28-6.19 5.73-8.59 2.5-2.4 5.41-4.26 8.74-5.58 3.38-1.32 7.05-1.98 11.01-1.98 4.21 0 7.95 0.76 11.23 2.28s6.02 3.6 8.22 6.24c2.25 2.69 3.89 5.78 4.92 9.25 1.08 3.47 1.54 7.17 1.4 11.09h-25.33z" clip-path="url(#clipPath6)"/>
   <path transform="matrix(1.3333 0 0 -1.3333 447.8 29.987)" d="m0 0v8.88h-32.67v-51.39h32.67v8.88h-22.54v14.02h21.07v8.74h-21.07v10.87z" clip-path="url(#clipPath8)"/>
  </g>
  <g fill="#3b64a7">
   <path transform="matrix(1.3333 0 0 -1.3333 710.07 71.2)" d="m0 0c-0.78-1.13-1.88-1.96-3.3-2.5-1.42-0.49-3.01-0.73-4.77-0.73h-6.75v14.83h6.75c1.32 0 2.55-0.15 3.67-0.44 1.13-0.24 2.1-0.69 2.94-1.32 0.88-0.59 1.54-1.35 1.98-2.28 0.49-0.88 0.73-1.96 0.73-3.23 0-1.76-0.42-3.21-1.25-4.33m-9.18 31.42c2.3 0 4.11-0.51 5.43-1.54 1.37-1.03 2.06-2.52 2.06-4.48 0-1.27-0.32-2.37-0.96-3.3-0.59-0.93-1.44-1.64-2.57-2.13s-2.45-0.73-3.96-0.73h-5.65v12.19h5.65zm15.34-17.47c-1.43 0.93-3.02 1.65-4.75 2.18 2.29 0.96 4.14 2.28 5.49 3.99 1.47 1.86 2.2 4.09 2.2 6.68 0 2.94-0.73 5.36-2.2 7.27s-3.5 3.33-6.09 4.26c-2.59 0.98-5.6 1.47-9.03 1.47h-17.1v-51.39h18.21c3.82 0 7.17 0.51 10.06 1.54s5.11 2.62 6.68 4.77c1.61 2.15 2.42 4.92 2.42 8.3 0 2.55-0.54 4.72-1.61 6.53-1.03 1.81-2.45 3.28-4.26 4.4z" clip-path="url(#clipPath10)"/>
   <path transform="matrix(1.3333 0 0 -1.3333 868.27 64.053)" d="m0 0c-1.32-2.54-3.18-4.55-5.58-6.02s-5.19-2.2-8.37-2.2-5.97 0.73-8.37 2.2-4.28 3.47-5.65 6.02c-1.37 2.54-2.05 5.46-2.05 8.74s0.68 6.19 2.05 8.74c1.37 2.54 3.26 4.55 5.65 6.02 2.4 1.47 5.19 2.2 8.37 2.2s6.04-0.73 8.44-2.2 4.26-3.47 5.58-6.02c1.32-2.54 1.98-5.46 1.98-8.74s-0.69-6.19-2.06-8.74zm11.155 19.45c-1.32 3.28-3.23 6.12-5.725 8.52-2.45 2.4-5.31 4.23-8.59 5.51-3.28 1.32-6.88 1.98-10.79 1.98s-7.46-0.66-10.79-1.98c-3.28-1.27-6.14-3.11-8.59-5.51s-4.36-5.24-5.73-8.52c-1.37-3.23-2.06-6.8-2.06-10.72s0.66-7.46 1.98-10.79c1.32-3.28 3.2-6.14 5.65-8.59s5.31-4.36 8.59-5.73c3.33-1.32 6.97-1.98 10.94-1.98s7.59 0.66 10.86 1.98c3.33 1.37 6.19 3.28 8.59 5.73 2.445 2.45 4.335 5.31 5.655 8.59 1.37 3.33 2.05 6.93 2.05 10.79s-0.68 7.49-2.05 10.72z" clip-path="url(#clipPath12)"/>
   <path transform="matrix(1.3333 0 0 -1.3333 495.37 71.2)" d="m0 0c-0.78-1.13-1.88-1.96-3.3-2.5-1.42-0.49-3.01-0.73-4.77-0.73h-6.75v14.83h6.75c1.32 0 2.55-0.15 3.67-0.44 1.13-0.24 2.1-0.69 2.94-1.32 0.88-0.59 1.54-1.35 1.98-2.28 0.49-0.88 0.73-1.96 0.73-3.23 0-1.76-0.42-3.21-1.25-4.33m-9.18 31.42c2.3 0 4.11-0.51 5.43-1.54 1.37-1.03 2.05-2.52 2.05-4.48 0-1.27-0.32-2.37-0.95-3.3-0.59-0.93-1.44-1.64-2.57-2.13s-2.45-0.73-3.97-0.73h-5.65v12.19h5.65zm15.34-17.47c-1.43 0.93-3.02 1.65-4.75 2.18 2.29 0.96 4.14 2.28 5.48 3.99 1.47 1.86 2.2 4.09 2.2 6.68 0 2.94-0.73 5.36-2.2 7.27s-3.5 3.33-6.09 4.26c-2.59 0.98-5.6 1.47-9.03 1.47h-17.1v-51.39h18.21c3.82 0 7.17 0.51 10.06 1.54s5.11 2.62 6.68 4.77c1.62 2.15 2.42 4.92 2.42 8.3 0 2.55-0.54 4.72-1.61 6.53-1.03 1.81-2.45 3.28-4.26 4.4z" clip-path="url(#clipPath14)"/>
   <path transform="matrix(1.3333 0 0 -1.3333 788.93 64.053)" d="m0 0c-1.32-2.54-3.18-4.55-5.58-6.02s-5.19-2.2-8.37-2.2-5.97 0.73-8.37 2.2-4.28 3.47-5.65 6.02c-1.37 2.54-2.06 5.46-2.06 8.74s0.68 6.19 2.06 8.74c1.37 2.54 3.25 4.55 5.65 6.02s5.19 2.2 8.37 2.2 6.04-0.73 8.44-2.2 4.26-3.47 5.58-6.02c1.32-2.54 1.98-5.46 1.98-8.74s-0.68-6.19-2.06-8.74zm5.43 27.97c-2.45 2.4-5.31 4.23-8.59 5.51-3.28 1.32-6.88 1.98-10.79 1.98s-7.46-0.66-10.79-1.98c-3.28-1.27-6.14-3.11-8.59-5.51s-4.36-5.24-5.73-8.52c-1.37-3.23-2.05-6.8-2.05-10.72s0.66-7.46 1.98-10.79c1.32-3.28 3.21-6.14 5.65-8.59 2.45-2.45 5.31-4.36 8.59-5.73 3.33-1.32 6.97-1.98 10.94-1.98s7.59 0.66 10.86 1.98c3.33 1.37 6.19 3.28 8.59 5.73 2.45 2.45 4.33 5.31 5.65 8.59 1.37 3.33 2.06 6.93 2.06 10.79s-0.69 7.49-2.06 10.72c-1.32 3.28-3.23 6.12-5.73 8.52z" clip-path="url(#clipPath16)"/>
   <path transform="matrix(1.3333 0 0 -1.3333 626.44 58.96)" d="m0 0-21.51 33.18-7.63-53.96h10.94l3.3 28.85 14.9-24.08 14.9 24.08 3.31-28.85h10.94l-7.64 53.96z" clip-path="url(#clipPath18)"/>
   <path transform="matrix(1.3333 0 0 -1.3333 557.83 60.04)" d="m0 0h-12.8l6.43 14.76 6.38-14.76zm-32.44-19.97h11.82l5.37 11.67h17.63l5.42-11.67h11.89l-26.06 54.4-26.06-54.4z" clip-path="url(#clipPath20)"/>
  </g>
  <path transform="matrix(1.3333 0 0 -1.3333 126.71 85.213)" d="m0 0c-1.16-2.23-2.82-3.93-4.99-5.08-2.17-1.16-4.76-1.73-7.77-1.73h-4.81v28.2h2.49c1.16 0 2.44-0.04 3.83-0.12 1.47 0 2.94-0.19 4.41-0.58 1.55-0.39 2.98-1.04 4.29-1.96 1.31-0.85 2.36-2.12 3.13-3.81s1.16-3.93 1.16-6.7c0-3.24-0.58-5.97-1.74-8.21zm-16.01 53.85c5.34 0 9.16-1.04 11.48-3.12 2.32-2 3.48-5.16 3.48-9.48 0-2.77-0.5-4.93-1.51-6.47-0.93-1.46-2.17-2.47-3.71-3-1.47-0.54-2.98-0.85-4.52-0.92-1.55-0.08-2.94-0.12-4.18-0.12h-2.61l-0.27 23.1h1.83zm-11.67-23.11h-12.11v23.12h12.11v-23.11zm0-37.56h-12.11v28.2h12.11zm-44.8 37.56h-12.44v23.1h12.44zm0-37.43h-12.44v28.07h12.44zm83.26 21.6c-0.77 2.54-1.89 4.85-3.36 6.93s-3.25 3.78-5.34 5.09c1.55 1.08 2.82 2.43 3.83 4.04 1.08 1.7 1.89 3.51 2.44 5.43 0.54 1.93 0.77 3.89 0.7 5.89 0.08 3.93-0.81 7.55-2.67 10.86s-4.45 5.93-7.77 7.86c-3.25 1.93-7.04 2.89-11.37 2.89h-32.97c-0.64 0-1.25-0.13-1.81-0.38-0.31-0.12-0.59-0.26-0.83-0.43-0.47-0.31-0.85-0.72-1.14-1.24-0.45-0.7-0.72-1.53-0.72-2.43v-28.69h-12.14v28.7c0 2.47-2.01 4.48-4.49 4.48h-23.68c-2.48 0-4.49-2-4.49-4.48v-71.71c0-2.47 2.01-4.48 4.49-4.48h23.67c2.48 0 4.49 2 4.49 4.48v33.67h12.14v-33.67c0-0.72 0.17-1.4 0.47-2 0.26-0.72 0.68-1.28 1.27-1.67 0.41-0.29 0.91-0.5 1.5-0.63 0.4-0.11 0.82-0.18 1.25-0.18h34.13c3.25 0 6.3 0.58 9.16 1.73 2.86 1.23 5.37 2.93 7.54 5.09s3.83 4.66 4.99 7.51c1.16 2.93 1.78 6.05 1.86 9.36 0 2.77-0.39 5.43-1.16 7.97z" clip-path="url(#clipPath22)" fill="#404040"/>
 </g>
</svg>
